<?xml version="1.0" encoding="UTF-8" standalone="no"?>
<svg width="354px" height="76px" viewBox="0 0 354 76" version="1.1" xmlns="http://www.w3.org/2000/svg" xmlns:xlink="http://www.w3.org/1999/xlink">
    <g id="Glyph" transform="translate(1.000000, 1.000000)" fill="#FFFFFF">
        <path d="M16.3,61.8 C14,61.8 11.8,60.4 11,58.1 L-1.38777878e-15,27.7 C-1.1,24.8 0.4,21.5 3.4,20.4 C6.3,19.3 9.6,20.8 10.7,23.8 L21.8,54.2 C22.9,57.1 21.4,60.4 18.4,61.5 C17.6,61.7 17,61.8 16.3,61.8 L16.3,61.8 Z" id="Shape"></path>
        <path d="M16.3,61.8 C15.7,61.8 15,61.7 14.4,61.5 C11.5,60.4 9.9,57.2 11,54.2 L25.7,13.7 C26.8,10.8 30,9.2 33,10.3 C35.9,11.4 37.5,14.6 36.4,17.6 L21.7,58.1 C20.8,60.4 18.6,61.8 16.3,61.8 L16.3,61.8 Z" id="Shape"></path>
        <path d="M49.5,71.9 C47.2,71.9 45,70.5 44.2,68.2 L25.8,17.6 C24.7,14.7 26.2,11.4 29.2,10.3 C32.1,9.2 35.4,10.7 36.5,13.7 L54.9,64.3 C56,67.2 54.5,70.5 51.5,71.6 C50.8,71.8 50.2,71.9 49.5,71.9 L49.5,71.9 Z" id="Shape"></path>
        <path d="M50.5,71.9 C49.9,71.9 49.2,71.8 48.6,71.6 C45.7,70.5 44.1,67.3 45.2,64.3 L67.3,3.6 C68.4,0.7 71.6,-0.9 74.6,0.2 C77.5,1.3 79.1,4.5 78,7.5 L55.8,68.2 C55,70.5 52.8,71.9 50.5,71.9 L50.5,71.9 Z" id="Shape"></path>
    </g>
    <g id="Type" transform="translate(100.000000, 20.000000)" fill="#FFFFFF">
        <path d="M-0.2,31.4 L-0.2,3.7 C-0.2,2.7 0.6,1.9 1.6,1.9 L9,1.9 C19.8,1.9 26.2,7.7 26.2,17.5 C26.2,27.4 19.7,33.3 8.8,33.3 L1.6,33.3 C0.7,33.2 -0.2,32.4 -0.2,31.4 L-0.2,31.4 Z M9.1,30.3 C17.9,30.3 22.9,25.6 22.9,17.5 C22.9,9.5 17.8,4.7 9.1,4.7 L3.1,4.7 L3.1,30.3 L9.1,30.3 L9.1,30.3 Z" id="Shape"></path>
        <path d="M34.8,14.4 C35.8,11.2 37.8,9.6 40.9,9.6 C43,9.6 44.2,10.5 44.2,12 C44.2,13.2 43.4,13.7 43.3,13.6 C42.6,13 41.8,12.6 40.5,12.6 C36.4,12.6 34.8,16.9 34.8,22.8 L34.8,31.9 C34.8,33.1 34.2,33.4 33.4,33.4 L33.1,33.4 C32.3,33.4 31.7,33.1 31.7,31.9 L31.7,10.3 C31.7,10.2 32.2,10 32.8,10 C33.9,10 34.8,10.5 34.8,13.1 L34.8,14.4 L34.8,14.4 Z" id="Shape"></path>
        <path d="M47.9,2.3 C47.9,0.9 48.6,0.2 50,0.2 C51.4,0.2 52,0.9 52,2.3 C52,3.7 51.3,4.4 49.9,4.4 C48.6,4.4 47.9,3.6 47.9,2.3 L47.9,2.3 Z M48.3,31.9 L48.3,11.4 C48.3,10.2 48.9,9.9 49.7,9.9 L50,9.9 C50.8,9.9 51.4,10.2 51.4,11.4 L51.4,31.9 C51.4,33.1 50.8,33.4 50,33.4 L49.7,33.4 C48.9,33.4 48.3,33.1 48.3,31.9 L48.3,31.9 Z" id="Shape"></path>
        <path d="M73.4,12.3 C74.1,10.4 74.7,10 75.7,10 C76.8,10 77.3,10.8 77.3,10.9 L68.8,32.3 C68.5,33.1 68.1,33.6 66.5,33.6 C64.9,33.6 64.7,33.3 64.4,32.4 L55.8,10.9 C55.8,10.7 56.2,10 57.4,10 C58.5,10 59,10.4 59.8,12.3 L66.6,30.4 L73.4,12.3 L73.4,12.3 Z" id="Shape"></path>
        <path d="M79.1,21.8 C79.1,14.8 84,9.6 90.7,9.6 C97.2,9.6 101.5,14.2 101.5,21.2 L101.5,21.5 C101.5,22.4 101.2,22.6 100.2,22.6 L82.3,22.6 C82.5,27.5 86.1,31 91.1,31 C95.6,31 97.6,29.1 99,26.9 C99.1,26.8 100.8,27.2 100.8,28.7 C100.8,30.3 97.3,33.8 91.1,33.8 C84,33.8 79.1,28.9 79.1,21.8 L79.1,21.8 Z M82.4,19.8 L98.2,19.8 C97.9,15.2 95.1,12.3 90.8,12.3 C86.4,12.3 83.1,15.4 82.4,19.8 L82.4,19.8 Z" id="Shape"></path>
        <path d="M112.9,31.6 L105.6,3.1 C105.6,2.9 106.6,1.7 108.6,1.7 C109.9,1.7 111,2.5 111.5,4.6 L116.6,27.7 L122.6,8 C123,6.5 124,5.7 125.9,5.7 C127.8,5.7 128.7,6.5 129.2,8 L135.1,27.6 L140.3,4.6 C140.7,2.6 141.7,1.7 143.1,1.7 C144.9,1.7 146,2.9 145.9,3.1 L138.7,31.6 C138.4,33.1 137.4,33.6 135.3,33.6 C133.4,33.6 132.5,33 132.1,31.6 L126,11.3 L119.6,31.6 C119.2,33.1 118.4,33.6 116.4,33.6 C114.1,33.6 113.2,33.1 112.9,31.6 L112.9,31.6 Z" id="Shape"></path>
        <path d="M147.2,21.7 C147.2,14.6 152.2,9.3 159.1,9.3 C165.8,9.3 170.3,14.1 170.3,21 L170.3,21.4 C170.3,22.4 170,22.8 168.8,22.8 L151.6,22.8 C151.9,27.1 155.1,30 159.6,30 C163.7,30 165.7,28.2 166.9,26.1 C167,26 169.4,26.4 169.4,28.5 C169.4,30.5 165.8,33.8 159.5,33.8 C152.2,33.8 147.2,28.9 147.2,21.7 L147.2,21.7 Z M151.8,19.6 L165.8,19.6 C165.6,15.6 163.1,13 159.2,13 C155.3,12.9 152.3,15.7 151.8,19.6 L151.8,19.6 Z" id="Shape"></path>
        <path d="M173.5,27.1 C173.5,21.7 178.6,19.4 189.2,19.2 L189.8,19.2 L189.8,18.7 C189.8,15.2 187.8,13.2 184,13.2 C180.5,13.2 178.4,15 177.3,17.2 C177.3,17.2 174.3,17.2 174.3,14.9 C174.3,12.7 177.7,9.3 184.3,9.3 C190.9,9.3 194.5,12.7 194.5,18.6 L194.5,32.9 C194.5,33.1 193.6,33.4 192.8,33.4 C191.1,33.4 189.9,32.5 189.8,29.7 C188,32.2 184.9,33.7 181.4,33.7 C176.4,33.8 173.5,31.1 173.5,27.1 L173.5,27.1 Z M189.8,24 L189.8,22.2 L188.5,22.2 C181.7,22.4 178.2,23.7 178.2,26.9 C178.2,29 179.8,30.3 182.6,30.3 C186.8,30.3 189.8,27.7 189.8,24 L189.8,24 Z" id="Shape"></path>
        <path d="M200.4,31.1 L200.4,0.4 C200.4,0.3 201.2,-0.1 202.1,-0.1 C203.6,-0.1 205.2,0.7 205.2,4 L205.2,31.1 C205.2,32.8 204.3,33.4 203.1,33.4 L202.6,33.4 C201.3,33.4 200.4,32.9 200.4,31.1 L200.4,31.1 Z" id="Shape"></path>
        <path d="M209.3,12 L209.3,11.7 C209.3,10.5 209.9,9.9 211.4,9.9 L213.1,9.9 L213.1,6.3 C213.1,4.7 213.9,4 215.2,4 L215.7,4 C217,4 217.8,4.5 217.8,6.3 L217.8,9.9 L223.1,9.9 C224.6,9.9 225.1,10.5 225.1,11.6 L225.1,12 C225.1,13.2 224.5,13.8 223,13.8 L217.7,13.8 L217.7,25.6 C217.7,28.5 218.5,29.9 220.8,29.9 C222.3,29.9 223.4,29.2 224.1,28.3 C224.2,28.2 225.5,28.8 225.5,30.3 C225.5,32.1 223.5,33.8 220.1,33.8 C215.3,33.8 213.1,31.1 213.1,26.1 L213.1,13.8 L211.4,13.8 C209.9,13.8 209.3,13.2 209.3,12 L209.3,12 Z" id="Shape"></path>
        <path d="M234.2,13.6 C235.8,11.1 238.3,9.3 241.9,9.3 C248.1,9.3 250.9,13.6 250.9,19.4 L250.9,31.1 C250.9,32.8 250,33.4 248.8,33.4 L248.3,33.4 C247,33.4 246.2,32.9 246.2,31.1 L246.2,19.9 C246.2,15.9 244.2,13.5 240.8,13.5 C236.8,13.5 234.3,16.1 234.3,20.3 L234.3,31.1 C234.3,32.8 233.4,33.4 232.2,33.4 L231.7,33.4 C230.4,33.4 229.6,32.9 229.6,31.1 L229.6,0.4 C229.6,0.3 230.4,-0.1 231.3,-0.1 C232.8,-0.1 234.4,0.7 234.4,4 L234.4,13.6 L234.2,13.6 Z" id="Shape"></path>
    </g>
</svg>