<svg xmlns="http://www.w3.org/2000/svg" xmlns:xlink="http://www.w3.org/1999/xlink" version="1.1" x="0px" y="0px" viewBox="0 0 357.3 79" enable-background="new 0 0 357.3 79" xml:space="preserve">
<style>
	.logo-glyph{
		fill:	#FEC109;
	}
	.logo-text{
		fill:	#333333;
	}
</style><g>
	<g>
		<path d="M20.3 64.8c-2.3 0-4.5-1.4-5.3-3.7L4 30.7c-1.1-2.9 0.4-6.2 3.4-7.3c2.9-1.1 6.2 0.4 7.3 3.4l11.1 30.4 c1.1 2.9-0.4 6.2-3.4 7.3C21.6 64.7 21 64.8 20.3 64.8z" class="logo-glyph"/>
	</g>
	<g>
		<path d="M20.3 64.8c-0.6 0-1.3-0.1-1.9-0.3c-2.9-1.1-4.5-4.3-3.4-7.3l14.7-40.5c1.1-2.9 4.3-4.5 7.3-3.4 c2.9 1.1 4.5 4.3 3.4 7.3L25.7 61.1C24.8 63.4 22.6 64.8 20.3 64.8z" class="logo-glyph"/>
	</g>
	<g>
		<path d="M53.5 74.9c-2.3 0-4.5-1.4-5.3-3.7L29.8 20.6c-1.1-2.9 0.4-6.2 3.4-7.3c2.9-1.1 6.2 0.4 7.3 3.4l18.4 50.6 c1.1 2.9-0.4 6.2-3.4 7.3C54.8 74.8 54.2 74.9 53.5 74.9z" class="logo-glyph"/>
	</g>
	<g>
		<path d="M53.5 74.9c-0.6 0-1.3-0.1-1.9-0.3c-2.9-1.1-4.5-4.3-3.4-7.3L70.3 6.6c1.1-2.9 4.3-4.5 7.3-3.4 c2.9 1.1 4.5 4.3 3.4 7.3L58.8 71.2C58 73.5 55.8 74.9 53.5 74.9z" class="logo-glyph"/>
	</g>
</g>
<g>
	<path d="M102.8 53.4V25.7c0-1 0.8-1.8 1.8-1.8h7.4c10.8 0 17.2 5.8 17.2 15.6c0 9.9-6.5 15.8-17.4 15.8h-7.2 C103.7 55.2 102.8 54.4 102.8 53.4z M112.1 52.3c8.8 0 13.8-4.7 13.8-12.8c0-8-5.1-12.8-13.8-12.8h-6v25.6H112.1z" class="logo-text"/>
	<path d="M137.8 36.4c1-3.2 3-4.8 6.1-4.8c2.1 0 3.3 0.9 3.3 2.4c0 1.2-0.8 1.7-0.9 1.6c-0.7-0.6-1.5-1-2.8-1 c-4.1 0-5.7 4.3-5.7 10.2v9.1c0 1.2-0.6 1.5-1.4 1.5h-0.3c-0.8 0-1.4-0.3-1.4-1.5V32.3c0-0.1 0.5-0.3 1.1-0.3c1.1 0 2 0.5 2 3.1 V36.4z" class="logo-text"/>
	<path d="M150.9 24.3c0-1.4 0.7-2.1 2.1-2.1c1.4 0 2 0.7 2 2.1c0 1.4-0.7 2.1-2.1 2.1 C151.6 26.4 150.9 25.6 150.9 24.3z M151.3 53.9V33.4c0-1.2 0.6-1.5 1.4-1.5h0.3c0.8 0 1.4 0.3 1.4 1.5v20.5c0 1.2-0.6 1.5-1.4 1.5 h-0.3C151.9 55.4 151.3 55.1 151.3 53.9z" class="logo-text"/>
	<path d="M176.4 34.3c0.7-1.9 1.3-2.3 2.3-2.3c1.1 0 1.6 0.8 1.6 0.9l-8.5 21.4c-0.3 0.8-0.7 1.3-2.3 1.3 c-1.6 0-1.8-0.3-2.1-1.2l-8.6-21.5c0-0.2 0.4-0.9 1.6-0.9c1.1 0 1.6 0.4 2.4 2.3l6.8 18.1L176.4 34.3z" class="logo-text"/>
	<path d="M182.1 43.8c0-7 4.9-12.2 11.6-12.2c6.5 0 10.8 4.6 10.8 11.6v0.3c0 0.9-0.3 1.1-1.3 1.1h-17.9 c0.2 4.9 3.8 8.4 8.8 8.4c4.5 0 6.5-1.9 7.9-4.1c0.1-0.1 1.8 0.3 1.8 1.8c0 1.6-3.5 5.1-9.7 5.1C187 55.8 182.1 50.9 182.1 43.8z M185.4 41.8h15.8c-0.3-4.6-3.1-7.5-7.4-7.5C189.4 34.3 186.1 37.4 185.4 41.8z" class="logo-text"/>
	<path d="M215.9 53.6l-7.3-28.5c0-0.2 1-1.4 3-1.4c1.3 0 2.4 0.8 2.9 2.9l5.1 23.1l6-19.7c0.4-1.5 1.4-2.3 3.3-2.3 c1.9 0 2.8 0.8 3.3 2.3l5.9 19.6l5.2-23c0.4-2 1.4-2.9 2.8-2.9c1.8 0 2.9 1.2 2.8 1.4l-7.2 28.5c-0.3 1.5-1.3 2-3.4 2 c-1.9 0-2.8-0.6-3.2-2l-6.1-20.3l-6.4 20.3c-0.4 1.5-1.2 2-3.2 2C217.1 55.6 216.2 55.1 215.9 53.6z" class="logo-text"/>
	<path d="M250.2 43.7c0-7.1 5-12.4 11.9-12.4c6.7 0 11.2 4.8 11.2 11.7v0.4c0 1-0.3 1.4-1.5 1.4h-17.2 c0.3 4.3 3.5 7.2 8 7.2c4.1 0 6.1-1.8 7.3-3.9c0.1-0.1 2.5 0.3 2.5 2.4c0 2-3.6 5.3-9.9 5.3C255.2 55.8 250.2 50.9 250.2 43.7z M254.8 41.6h14c-0.2-4-2.7-6.6-6.6-6.6C258.3 34.9 255.3 37.7 254.8 41.6z" class="logo-text"/>
	<path d="M276.5 49.1c0-5.4 5.1-7.7 15.7-7.9h0.6v-0.5c0-3.5-2-5.5-5.8-5.5c-3.5 0-5.6 1.8-6.7 4c0 0-3 0-3-2.3 c0-2.2 3.4-5.6 10-5.6c6.6 0 10.2 3.4 10.2 9.3v14.3c0 0.2-0.9 0.5-1.7 0.5c-1.7 0-2.9-0.9-3-3.7c-1.8 2.5-4.9 4-8.4 4 C279.4 55.8 276.5 53.1 276.5 49.1z M292.8 46v-1.8l-1.3 0c-6.8 0.2-10.3 1.5-10.3 4.7c0 2.1 1.6 3.4 4.4 3.4 C289.8 52.3 292.8 49.7 292.8 46z" class="logo-text"/>
	<path d="M303.4 53.1V22.4c0-0.1 0.8-0.5 1.7-0.5c1.5 0 3.1 0.8 3.1 4.1v27.1c0 1.7-0.9 2.3-2.1 2.3h-0.5 C304.3 55.4 303.4 54.9 303.4 53.1z" class="logo-text"/>
	<path d="M312.3 34v-0.3c0-1.2 0.6-1.8 2.1-1.8h1.7v-3.6c0-1.6 0.8-2.3 2.1-2.3h0.5c1.3 0 2.1 0.5 2.1 2.3v3.6h5.3 c1.5 0 2 0.6 2 1.7V34c0 1.2-0.6 1.8-2.1 1.8h-5.3v11.8c0 2.9 0.8 4.3 3.1 4.3c1.5 0 2.6-0.7 3.3-1.6c0.1-0.1 1.4 0.5 1.4 2 c0 1.8-2 3.5-5.4 3.5c-4.8 0-7-2.7-7-7.7V35.8h-1.7C312.9 35.8 312.3 35.2 312.3 34z" class="logo-text"/>
	<path d="M337.2 35.6c1.6-2.5 4.1-4.3 7.7-4.3c6.2 0 9 4.3 9 10.1v11.7c0 1.7-0.9 2.3-2.1 2.3h-0.5 c-1.3 0-2.1-0.5-2.1-2.3V41.9c0-4-2-6.4-5.4-6.4c-4 0-6.5 2.6-6.5 6.8v10.8c0 1.7-0.9 2.3-2.1 2.3h-0.5c-1.3 0-2.1-0.5-2.1-2.3 V22.4c0-0.1 0.8-0.5 1.7-0.5c1.5 0 3.1 0.8 3.1 4.1V35.6z" class="logo-text"/>
</g>
</svg>
